HIERARCHY
ROOT Hips
{
    OFFSET 0.000000 0.000000 0.000000
    CHANNELS 6 Xposition Yposition Zposition Zrotation Xrotation Yrotation
    JOINT Spine
    {
        OFFSET -0.000000 7.761268 0.000000
        CHANNELS 3 Zrotation Xrotation Yrotation
        JOINT Spine1
        {
            OFFSET -0.000000 24.785763 0.000000
            CHANNELS 3 Zrotation Xrotation Yrotation
            JOINT Neck
            {
                OFFSET -0.000000 24.683973 2.243998
                CHANNELS 3 Zrotation Xrotation Yrotation
                JOINT Head
                {
                    OFFSET -0.000000 13.250945 -1.892992
                    CHANNELS 3 Zrotation Xrotation Yrotation
                    End Site
                    {
                        OFFSET -0.000000 23.662401 0.000000
                    }
                }
            }
            JOINT LeftShoulder
            {
                OFFSET 3.794134 23.444212 -0.177979
                CHANNELS 3 Zrotation Xrotation Yrotation
                JOINT LeftArm
                {
                    OFFSET 9.211075 0.000000 0.000000
                    CHANNELS 3 Zrotation Xrotation Yrotation
                    JOINT LeftForeArm
                    {
                        OFFSET 34.352840 0.000000 0.000000
                        CHANNELS 3 Zrotation Xrotation Yrotation
                        JOINT LeftHand
                        {
                            OFFSET 25.460636 0.000000 0.000000
                            CHANNELS 3 Zrotation Xrotation Yrotation
                            End Site
                            {
                                OFFSET 14.197442 0.000000 0.000000
                            }
                        }
                    }
                }
            }
            JOINT RightShoulder
            {
                OFFSET -3.767389 23.444212 -0.177979
                CHANNELS 3 Zrotation Xrotation Yrotation
                JOINT RightArm
                {
                    OFFSET -9.211075 0.000000 0.000000
                    CHANNELS 3 Zrotation Xrotation Yrotation
                    JOINT RightForeArm
                    {
                        OFFSET -34.352840 0.000000 0.000000
                        CHANNELS 3 Zrotation Xrotation Yrotation
                        JOINT RightHand
                        {
                            OFFSET -25.460636 0.000000 0.000000
                            CHANNELS 3 Zrotation Xrotation Yrotation
                            End Site
                            {
                                OFFSET -14.197442 0.000000 0.000000
                            }
                        }
                    }
                }
            }
        }
    }
    JOINT LeftUpLeg
    {
        OFFSET 9.464960 0.000000 0.000000
        CHANNELS 3 Zrotation Xrotation Yrotation
        JOINT LeftLeg
        {
            OFFSET -0.000000 -36.073700 0.000000
            CHANNELS 3 Zrotation Xrotation Yrotation
            JOINT LeftFoot
            {
                OFFSET -0.000000 -40.808823 0.000000
                CHANNELS 3 Zrotation Xrotation Yrotation
                JOINT LeftToeBase
                {
                    OFFSET -0.000000 -6.152224 14.197442
                    CHANNELS 3 Zrotation Xrotation Yrotation
                    End Site
                    {
                        OFFSET -0.000000 0.000000 3.785984
                    }
                }
            }
        }
    }
    JOINT RightUpLeg
    {
        OFFSET -9.464960 0.000000 0.000000
        CHANNELS 3 Zrotation Xrotation Yrotation
        JOINT RightLeg
        {
            OFFSET -0.000000 -36.073700 0.000000
            CHANNELS 3 Zrotation Xrotation Yrotation
            JOINT RightFoot
            {
                OFFSET -0.000000 -40.808823 0.000000
                CHANNELS 3 Zrotation Xrotation Yrotation
                JOINT RightToeBase
                {
                    OFFSET -0.000000 -6.152224 14.197442
                    CHANNELS 3 Zrotation Xrotation Yrotation
                    End Site
                    {
                        OFFSET -0.000000 0.000000 3.785984
                    }
                }
            }
        }
    }
}
MOTION
Frames:    7
Frame Time:    0.004000
-17.154461    78.411949    -212.060257    1.122765    -0.474409    8.522394    0.019690    -4.591250    0.944234    -1.475111    -1.899590    0.919015    2.448731    19.760469    -1.190946    1.020744    4.794673    -1.054282    12.122354    0.881632    -6.518352    -8.791148    -3.788143    -0.900669    2.456347    -6.555650    -2.440777    -1.107383    -6.511459    0.813982    -12.366884    -1.323113    -0.341647    12.533961    -4.212798    -2.255977    -3.148448    1.721294    -2.215816    -0.489659    1.646299    3.314699    -2.922709    5.714119    0.054957    1.112642    -1.252756    -8.160406    1.341261    -3.472097    15.172009    0.000000    0.000000    0.000000    1.479014    12.040587    -5.300604    0.712634    -11.711445    -0.587734    -1.874425    -1.268729    -23.163364    0.000000    0.000000    0.000000    
-17.162373    78.411682    -212.068695    1.124571    -0.483613    8.514577    -0.008013    -4.671490    0.969105    -1.418199    -1.747597    0.947826    2.488433    19.693287    -1.216072    0.954984    4.775888    -1.087315    12.076354    0.830432    -6.596722    -8.748056    -3.951237    -0.858745    2.354370    -6.555329    -2.432116    -1.172186    -6.514647    0.883478    -12.375876    -1.362201    -0.392464    12.531833    -4.191921    -2.236954    -3.145431    1.812115    -2.204859    -0.533570    1.737614    3.004278    -2.919840    5.714277    0.062533    1.113778    -1.241818    -8.215440    1.325505    -3.482832    15.227097    0.000000    0.000000    0.000000    1.488540    12.042494    -5.290702    0.699527    -11.712461    -0.570709    -1.856799    -1.260584    -23.181696    0.000000    0.000000    0.000000    
-17.165691    78.411011    -212.072174    1.123466    -0.484284    8.504849    -0.004214    -4.675740    0.971729    -1.420416    -1.748411    0.950215    2.460611    19.704185    -1.201890    1.015797    4.747873    -1.066738    12.061127    0.844510    -6.597484    -8.754208    -3.889304    -0.857882    2.343132    -6.498353    -2.418352    -1.235654    -6.458989    0.912774    -12.361321    -1.354365    -0.373011    12.529518    -4.174991    -2.245347    -3.147263    1.816394    -2.201997    -0.498692    1.742811    3.015057    -2.911259    5.705362    0.065100    1.110026    -1.231999    -8.237367    1.341426    -3.477054    15.232782    0.000000    0.000000    0.000000    1.491647    12.036028    -5.279377    0.694082    -11.710682    -0.552567    -1.840437    -1.266113    -23.197908    0.000000    0.000000    0.000000    
-17.169861    78.411087    -212.079575    1.120190    -0.497789    8.493759    0.003248    -4.649995    0.977706    -1.416701    -1.769576    0.955718    2.442577    19.718708    -1.209256    1.035784    4.719873    -1.072321    12.028707    0.867359    -6.598454    -8.760900    -3.789994    -0.857218    2.386678    -6.537895    -2.407397    -1.258365    -6.496725    0.793840    -12.360307    -1.344283    -0.379596    12.540326    -4.132826    -2.232187    -3.142063    1.817026    -2.194942    -0.502803    1.743752    2.988665    -2.907309    5.706727    0.080684    1.108509    -1.216436    -8.219417    1.387097    -3.493156    15.225027    0.000000    0.000000    0.000000    1.500345    12.038988    -5.263681    0.687315    -11.704408    -0.583290    -1.882797    -1.250795    -23.174301    0.000000    0.000000    0.000000    
-17.171871    78.410667    -212.078903    1.130952    -0.509668    8.494177    -0.006265    -4.646317    0.971949    -1.417707    -1.765936    0.950374    2.466266    19.710394    -1.198966    1.007717    4.721120    -1.063926    12.019848    0.878458    -6.598681    -8.768503    -3.795563    -0.848621    2.526441    -6.473354    -2.326431    -2.125434    -6.437099    0.799344    -12.342348    -1.335064    -0.358243    12.534432    -4.157897    -2.228117    -3.136402    1.845562    -2.207038    -0.487749    1.772337    3.013768    -2.911657    5.734847    0.061272    1.102103    -1.251947    -8.152330    1.358835    -3.461889    15.179111    0.000000    0.000000    0.000000    1.493692    12.056548    -5.254106    0.682073    -11.712132    -0.575718    -1.916848    -1.243191    -23.182383    0.000000    0.000000    0.000000    
-17.176466    78.410629    -212.083054    1.130822    -0.511265    8.484395    -0.068690    -4.685345    0.980055    -1.292169    -1.700739    0.963715    2.408866    19.703941    -1.215796    1.021211    4.682456    -1.081695    11.934143    0.831352    -6.635070    -8.767072    -3.797330    -0.823579    2.527875    -6.473250    -2.310425    -2.161691    -6.437366    0.787349    -12.392020    -1.368226    -0.372399    12.536271    -4.074767    -2.229363    -3.138001    1.821385    -2.198921    -0.459376    1.749140    2.999168    -2.905510    5.733562    0.065120    1.094791    -1.246984    -8.149365    1.427551    -3.469970    15.175264    0.000000    0.000000    0.000000    1.492188    12.052055    -5.239545    0.686427    -11.709439    -0.546139    -1.866368    -1.249026    -23.220858    0.000000    0.000000    0.000000    
-17.178846    78.410057    -212.085556    1.132680    -0.515731    8.478071    -0.068484    -4.685096    0.981803    -1.288624    -1.697800    0.965560    2.401546    19.676241    -1.206121    1.033347    4.703155    -1.071498    11.908568    0.833393    -6.630352    -8.756524    -3.829543    -0.828128    2.507973    -6.439803    -2.293962    -2.189130    -6.403955    0.740253    -12.307477    -1.222624    -0.340698    12.450295    -4.114556    -2.237025    -3.128265    1.779443    -2.172183    -0.427727    1.708857    3.022221    -2.910025    5.744419    0.083397    1.100303    -1.269219    -8.083255    1.318028    -3.447328    15.116325    0.000000    0.000000    0.000000    1.493291    12.050348    -5.240893    0.687485    -11.703000    -0.541059    -1.923296    -1.243029    -23.219307    0.000000    0.000000    0.000000    
